<svg width="883" height="487" viewBox="0 0 883 487" fill="none" xmlns="http://www.w3.org/2000/svg">
<g id="teamwork 1">
<g clip-path="url(#clip0)">
<path id="Vector" d="M761.819 485.139C828.298 485.139 882.191 477.711 882.191 468.548C882.191 459.385 828.298 451.957 761.819 451.957C695.339 451.957 641.447 459.385 641.447 468.548C641.447 477.711 695.339 485.139 761.819 485.139Z" fill="#E6E6E6"/>
<path id="Vector_2" d="M120.723 486.891C187.397 486.891 241.447 479.462 241.447 470.299C241.447 461.136 187.397 453.708 120.723 453.708C54.0496 453.708 0 461.136 0 470.299C0 479.462 54.0496 486.891 120.723 486.891Z" fill="#E6E6E6"/>
<path id="Vector_3" d="M201.184 222.624L204.289 229.041C204.289 229.041 221.916 252.565 211.027 256.25C200.138 259.935 194.36 233.939 194.36 233.939L191.481 230.301L201.184 222.624Z" fill="#FFB8B8"/>
<path id="Vector_4" d="M180.88 101.11L183.777 99.8843C183.777 99.8843 187.206 101.11 187.206 106.382C187.206 111.654 182.989 188.622 182.989 188.622L191.424 230.797L179.826 232.906L161.901 193.894L180.88 101.11Z" fill="#575A89"/>
<path id="Vector_5" d="M180.88 101.11L183.777 99.8843C183.777 99.8843 187.206 101.11 187.206 106.382C187.206 111.654 182.989 188.622 182.989 188.622L205.657 224.998L190.896 235.542L161.901 193.894L180.88 101.11Z" fill="#631D36"/>
<path id="Vector_6" d="M178.771 223.416C178.771 223.416 192.478 228.688 191.424 238.177C190.369 247.667 176.662 436.398 176.662 436.398L180.88 457.485L140.814 458.54L139.76 322.527L111.292 458.54H71.226L99.6939 219.199L178.771 223.416Z" fill="#2F2E41"/>
<path id="Vector_7" d="M175.608 453.268L185.097 462.757C185.097 462.757 207.239 466.975 201.967 474.355C196.695 481.736 141.868 472.246 141.868 472.246L142.923 455.376L175.608 453.268Z" fill="#2F2E41"/>
<path id="Vector_8" d="M107.074 453.268L116.564 462.757C116.564 462.757 138.705 466.975 133.434 474.355C128.162 481.736 73.3347 472.246 73.3347 472.246L74.3891 455.376L107.074 453.268Z" fill="#2F2E41"/>
<path id="Vector_9" d="M145.032 63.153C159.007 63.153 170.336 51.8236 170.336 37.8482C170.336 23.8728 159.007 12.5435 145.032 12.5435C131.056 12.5435 119.727 23.8728 119.727 37.8482C119.727 51.8236 131.056 63.153 145.032 63.153Z" fill="#FFB8B8"/>
<path id="Vector_10" d="M160.847 52.609L158.738 95.838L126.053 76.86L130.27 52.609H160.847Z" fill="#FFB8B8"/>
<path id="Vector_11" d="M124.999 66.316L155.575 88.458L160.847 72.642L170.336 97.947L165.064 143.285L124.999 66.316Z" fill="#CFCCE0"/>
<path id="Vector_12" d="M124.999 63.1529L158.738 109.545L159.96 70.7902L170.336 78.9684V87.4034L185.097 101.11L179.826 153.828L178.771 216.036C178.771 216.036 185.097 221.308 182.989 224.471C180.88 227.634 172.445 235.014 162.956 235.014C153.466 235.014 94.422 227.634 94.422 223.416C94.422 219.199 96.5308 164.372 96.5308 164.372V90.5664L121.836 71.5879L124.999 63.1529Z" fill="#631D36"/>
<path id="Vector_13" d="M92.313 238.177L106.02 258.21L111.292 235.014L104.966 230.797L92.313 238.177Z" fill="#FFB8B8"/>
<path id="Vector_14" opacity="0.2" d="M158.803 268.389L138.534 323.292L140.512 324.023L160.782 269.119L158.803 268.389Z" fill="black"/>
<path id="Vector_15" d="M129.743 13.0706C129.743 13.0706 132.906 -2.74483 150.831 0.41826L148.722 1.47261C148.722 1.47261 165.592 -0.636114 163.483 8.85317C163.483 8.85317 177.19 17.2881 174.027 26.7774C172.167 32.2773 170.756 37.9191 169.809 43.6472L166.646 40.4841C166.646 40.4841 163.483 19.3968 144.504 21.5055C130.27 23.0871 124.471 29.8087 122.989 34.6522C122.306 36.9296 121.435 39.1461 120.384 41.2787L119.2 41.5385C119.2 41.5385 112.873 18.3424 129.743 13.0706Z" fill="#B0823D"/>
<path id="Vector_16" d="M108.129 89.5121L98.5306 89.0666L96.5308 90.5664C94.2355 92.8603 92.1205 95.3278 90.2046 97.947C88.0959 101.11 60.6824 178.079 60.6824 178.079C60.1737 182.753 60.9008 187.48 62.7911 191.785C65.9542 199.166 91.2589 243.449 91.2589 243.449L110.238 231.851L84.9328 180.187L102.857 154.883L108.129 89.5121Z" fill="#631D36"/>
<path id="Vector_17" d="M726.044 420.319V448.719H743.084L745.356 420.319H726.044Z" fill="#A0616A"/>
<path id="Vector_18" d="M766.372 422.023L773.187 437.927L784.547 442.471L786.819 410.663L777.731 406.12L766.372 422.023Z" fill="#A0616A"/>
<path id="Vector_19" d="M781.139 435.655C781.139 435.655 780.176 428.484 770.434 431.502L772.051 452.695C772.051 452.695 764.1 476.55 775.459 474.278C786.819 472.006 793.635 450.423 793.635 450.423L801.587 414.071L782.384 408.446L781.139 435.655Z" fill="#2F2E41"/>
<path id="Vector_20" d="M709.572 194.827C709.572 194.827 693.669 315.241 699.349 328.873C705.029 342.505 764.668 430.543 764.668 430.543L790.795 396.464L732.292 323.193L786.819 248.218L791.363 202.779L709.572 194.827Z" fill="#2F2E41"/>
<path id="Vector_21" d="M772.051 237.994L787.048 245.93L786.819 248.218L749.9 432.815L721.5 427.135L740.244 297.065L772.051 237.994Z" fill="#2F2E41"/>
<path id="Vector_22" d="M724.34 440.199L717.524 450.423C717.524 450.423 702.757 475.414 718.66 475.414C734.564 475.414 741.38 475.414 742.516 469.734C743.35 465.864 744.489 462.065 745.924 458.375L744.788 443.607L724.34 440.199Z" fill="#2F2E41"/>
<path id="Vector_23" d="M768.643 64.1894C782.446 64.1894 793.635 53.0003 793.635 39.1978C793.635 25.3954 782.446 14.2063 768.643 14.2063C754.841 14.2063 743.652 25.3954 743.652 39.1978C743.652 53.0003 754.841 64.1894 768.643 64.1894Z" fill="#A0616A"/>
<path id="Vector_24" d="M748.196 47.1497C748.196 47.1497 751.604 66.4614 741.38 69.8693C731.156 73.2772 753.876 118.716 753.876 118.716L780.003 75.5492C780.003 75.5492 773.187 60.7815 777.731 53.9656L748.196 47.1497Z" fill="#A0616A"/>
<path id="Vector_25" d="M753.876 99.4048L747.709 62.3861L735.7 69.8693L703.893 88.045L716.388 141.436L711.844 174.38C711.844 174.38 706.164 184.603 707.3 189.147C708.436 193.691 706.164 195.963 707.3 197.099C708.436 198.235 765.235 207.323 782.275 214.139C799.315 220.955 801.587 223.227 800.451 217.547C799.315 211.867 786.819 184.603 786.819 184.603L797.043 139.164L810.675 99.4048L777.581 68.8635L753.876 99.4048Z" fill="#FCE028"/>
<path id="Vector_26" d="M802.723 149.388L810.675 170.972L790.227 208.459L783.555 213.648C782.501 214.468 781.711 215.579 781.283 216.844C780.856 218.108 780.809 219.471 781.148 220.762L785.683 237.994L797.569 220.343C797.569 220.343 829.986 181.195 828.85 170.972C827.715 160.748 824.307 144.844 824.307 144.844L802.723 149.388Z" fill="#A0616A"/>
<path id="Vector_27" d="M690.261 131.212L684.581 159.612L662.997 213.003C662.997 213.003 639.142 235.722 650.502 240.266C661.861 244.81 675.493 217.547 675.493 217.547L702.757 166.428L712.98 135.756L690.261 131.212Z" fill="#A0616A"/>
<path id="Vector_28" d="M798.179 97.1328L807.323 96.3118L810.675 99.4048C810.675 99.4048 829.986 142.572 827.714 147.116C825.443 151.66 802.723 153.932 802.723 153.932L793.635 126.668L798.179 97.1328Z" fill="#FCE028"/>
<path id="Vector_29" d="M711.845 89.1809L706.209 86.7214L703.893 88.045C703.893 88.045 681.173 133.484 686.853 135.756C692.533 138.028 719.796 141.436 719.796 141.436L711.845 89.1809Z" fill="#FCE028"/>
<path id="Vector_30" opacity="0.2" d="M735.7 328.597L728.775 376.651L722.329 366.75L735.7 328.597Z" fill="black"/>
<path id="Vector_31" d="M784.888 24.3972C784.888 24.3972 787.405 31.0222 775.722 27.626C775.722 27.626 771.094 29.8822 771.364 26.0315C771.364 26.0315 764.984 32.0347 763.77 28.0804C762.557 24.1262 759.232 29.0531 759.232 29.0531L756.715 22.4281L753.481 26.0714L743.102 25.3459C743.102 25.3459 741.93 -0.532059 777.337 4.52228C812.743 9.57662 792.394 49.0258 792.394 49.0258C792.394 49.0258 792.618 41.705 789.383 45.3483C786.149 48.9917 784.888 24.3972 784.888 24.3972Z" fill="#2F2E41"/>
<path id="Vector_32" d="M209.604 228.429V337.51H665.269V228.429H209.604ZM482.613 319.208H237.79V303.834H482.613V319.208ZM482.613 290.657H237.79V275.283H482.613V290.657ZM637.084 262.105H237.79V246.731H637.084V262.105Z" fill="white"/>
<path id="Vector_33" d="M460.743 180.28H399.248V118.784H440.977V120.249H400.712V178.816H459.279V149.532H460.743V180.28Z" fill="#3F3D56"/>
<path id="Vector_34" d="M429.679 164.24C428.258 160.044 410.437 145.78 421.357 143.382L430.312 155.323L471.484 114.152L475.625 118.292L429.679 164.24Z" fill="white"/>
</g>
</g>
<defs>
<clipPath id="clip0">
<rect width="882.191" height="486.891" fill="white"/>
</clipPath>
</defs>
</svg>
